<svg width="112" height="96" viewBox="0 0 112 96" fill="none" xmlns="http://www.w3.org/2000/svg">
<mask id="mask0_8_2" style="mask-type:luminance" maskUnits="userSpaceOnUse" x="0" y="0" width="112" height="96">
<path d="M0 0H111.036V95.4862H0V0Z" fill="white"/>
</mask>
<g mask="url(#mask0_8_2)">
<path d="M102.798 8.25367C91.8041 -2.73967 73.8368 -2.73967 62.8709 8.25367L55.5322 15.5924L48.1935 8.25367C37.1995 -2.73967 19.2322 -2.73967 8.26632 8.25367C-2.39033 18.9103 -2.69957 36.1467 7.3105 47.1969H33.1506L36.9184 27.5429C37.087 26.6145 37.8742 25.9398 38.83 25.8836C39.7865 25.8274 40.6299 26.4458 40.8829 27.3461L50.0777 58.6407L55.0824 38.312C55.3073 37.4398 56.0663 36.7933 56.9659 36.7651C57.8662 36.7089 58.6815 37.2712 58.9907 38.1433L62.899 49.2498L70.0972 27.2899C70.3783 26.4458 71.1936 25.8555 72.0932 25.8836C72.9934 25.9117 73.7806 26.5021 74.0055 27.3742L79.4881 47.1969H103.754C113.792 36.1467 113.455 18.9103 102.798 8.25367ZM75.9459 49.7839L71.8401 34.994L64.8676 56.2505C64.5858 57.0945 63.8267 57.6568 62.9552 57.6568H62.9271C62.0556 57.6568 61.2966 57.1226 60.9867 56.2786L57.3595 45.9599L52.1861 66.9634C51.9612 67.8636 51.1741 68.5102 50.2464 68.5102H50.1901C49.2899 68.5102 48.4746 67.9199 48.2216 67.0477L39.3086 36.5683L36.8059 49.6152C36.6091 50.5711 35.7657 51.2739 34.8092 51.2739H11.3031L55.5041 95.4748L99.705 51.2739H77.8857C76.9861 51.2739 76.1989 50.6554 75.9459 49.7839Z" fill="white"/>
</g>
</svg>
