M48
; DRILL file {KiCad 9.0.6-rc1} date 2025-10-31T23:21:30+0800
; FORMAT={-:-/ absolute / metric / decimal}
; #@! TF.CreationDate,2025-10-31T23:21:30+08:00
; #@! TF.GenerationSoftware,Kicad,Pcbnew,9.0.6-rc1
; #@! TF.FileFunction,Plated,1,2,PTH
FMAT,2
METRIC
; #@! TA.AperFunction,Plated,PTH,ComponentDrill
T1C0.800
; #@! TA.AperFunction,Plated,PTH,ComponentDrill
T2C0.900
; #@! TA.AperFunction,Plated,PTH,ComponentDrill
T3C1.000
%
G90
G05
T1
X127.31Y-119.33
X137.47Y-119.33
T2
X145.97Y-118.33
X145.97Y-120.87
X152.47Y-118.33
X152.47Y-120.87
X158.97Y-118.33
X158.97Y-120.87
X165.47Y-118.33
X165.47Y-120.87
X171.97Y-118.33
X171.97Y-120.87
X178.47Y-118.33
X178.47Y-120.87
X184.97Y-118.33
X184.97Y-120.87
T3
X106.82Y-54.45
X106.82Y-56.99
X106.82Y-59.53
X106.82Y-62.07
X107.93Y-105.83
X110.47Y-105.83
X113.01Y-105.83
X126.67Y-103.83
X134.27Y-103.83
X146.96Y-95.94
X146.96Y-111.18
X149.5Y-95.94
X149.5Y-111.18
X152.04Y-95.94
X152.04Y-111.18
X154.58Y-95.94
X154.58Y-111.18
X157.12Y-95.94
X157.12Y-111.18
X159.66Y-95.94
X159.66Y-111.18
X162.2Y-95.94
X162.2Y-111.18
X164.74Y-95.94
X164.74Y-111.18
X167.28Y-95.94
X167.28Y-111.18
X169.82Y-95.94
X169.82Y-111.18
X172.36Y-95.94
X172.36Y-111.18
X174.9Y-95.94
X174.9Y-111.18
X177.44Y-95.94
X177.44Y-111.18
X179.98Y-95.94
X179.98Y-111.18
X182.52Y-95.94
X182.52Y-111.18
M30
